<?xml version="1.0"?>
<svg width="130" height="130" xmlns="http://www.w3.org/2000/svg" xmlns:svg="http://www.w3.org/2000/svg">
 <g class="layer">
  <title>Layer 1</title>
  <path clip-rule="evenodd" d="m82.7,46l-34.4,0c-1.18,0 -2.15,0.9 -2.15,2l0,21.27l13.6,-2.96c0.97,-0.2 1.95,-0.31 2.93,-0.31l5.63,0c0.99,0 1.97,0.11 2.93,0.31l13.6,2.96l0,-21.27c0,-1.1 -0.97,-2 -2.15,-2zm-34.4,-2c-2.38,0 -4.3,1.79 -4.3,4l0,32c0,2.21 1.92,4 4.3,4l34.4,0c2.38,0 4.3,-1.79 4.3,-4l0,-32c0,-2.21 -1.92,-4 -4.3,-4l-34.4,0zm7.43,14.55c2.16,0 3.91,-1.63 3.91,-3.64c0,-2.01 -1.75,-3.64 -3.91,-3.64c-2.16,0 -3.91,1.63 -3.91,3.64c0,2.01 1.75,3.64 3.91,3.64z" fill="#CDCDCD" fill-rule="evenodd" id="svg_1"/>
 </g>
</svg>