<svg width="13" height="14" viewBox="0 0 13 14" fill="none" xmlns="http://www.w3.org/2000/svg">
<path fill-rule="evenodd" clip-rule="evenodd" d="M7.5924 8.41382C6.16047 9.84574 3.83887 9.84574 2.40695 8.41382C0.975025 6.9819 0.975025 4.6603 2.40695 3.22837C3.83887 1.79645 6.16047 1.79645 7.5924 3.22837C9.02432 4.6603 9.02432 6.9819 7.5924 8.41382ZM8.03278 9.79678C6.07255 11.2962 3.25697 11.1495 1.46414 9.35663C-0.488483 7.40401 -0.488483 4.23819 1.46414 2.28556C3.41676 0.332943 6.58258 0.332943 8.53521 2.28556C10.328 4.07831 10.4747 6.89373 8.97556 8.85394L12.5423 12.4206L11.5995 13.3635L8.03278 9.79678Z" fill="#999999"/>
</svg>
